Patient4_TMGait_0pt8_01_right_18_EMG.mot
version=1
nRows=40
nColumns=33
inDegrees=no
endheader
time	1LAddLong	2LGlutMax	3LGlutMed	4LIliopsoas	5LSemiMemb	6LBicFemLong	7LRecFem	8LVastMed	9LVastLat	10LGasMed	11LTibAnt	12lTibPost	13LPeroneusLong	14LSol	15LExtDigLong	16LFlexDigLong	17RAddLong	18RGlutMax	19RGlutMed	20RIliopsoas	21RSemiMemb	22RBicFemLong	23RRecFem	24RVastMed	25RVastLat	26RGasMed	27RTibAnt	28RTibPost	29RPeroneusLong	30RSol	31RExtDigLong	32RFlexDigLong
20.38	-0.015869	-0.81177	0.049133	0.024872	0.008087	-0.01236	-0.019379	-0.012665	0.061035	-0.007477	0.10361	0.000153	-0.005493	0.081635	0.448	0.034027	-0.019379	0.29297	0.60394	-0.11917	0.040894	0.15747	0.271	0.15839	0.31143	-0.055084	0.032806	-0.16403	1.5695	-0.67001	0.000763	-0.024109
20.381	-0.016785	-0.76935	0.04364	0.014343	0.013123	-0.025024	-0.03891	-0.008392	0.078888	-0.025177	-0.11871	-0.00412	0.054016	0.18372	-0.014191	0.03479	-0.005188	0.28168	0.46906	-0.038452	0.21805	-0.16647	0.48126	0.094757	0.31036	0.091705	-0.14038	-0.1799	2.784	-0.42831	-0.001526	-0.013428
20.382	-0.017853	-0.72433	0.11063	0.010223	0.011597	-0.029907	-0.084991	0.007477	0.079956	-0.021362	-0.041962	-0.012054	0.028076	0.24262	0.05249	0.029602	-0.018158	0.19379	-0.028839	-0.084686	0.075531	-0.42526	0.43686	0.098877	0.49881	0.050507	-0.41199	-0.23102	-0.18646	0.064087	-0.002136	-0.005951
20.383	-0.020142	-0.66147	0.14343	-0.003052	-0.000458	-0.040741	-0.11887	0.002289	0.077362	0.011139	0.034943	-0.012817	-0.07431	0.25009	0.037842	0.017548	0.006561	0.070496	-1.2038	0.031433	0.046539	-0.19989	0.41763	0.081635	0.041809	0.046844	-0.089722	-0.2536	-2.0198	0.12955	-0.003052	-0.001831
20.384	-0.022736	-0.53268	0.18402	-0.010986	0.012817	-0.036316	-0.026093	0.009766	0.056152	0.034943	0.025177	-0.013885	-0.065155	0.1973	-0.3154	0.015106	0.013733	-0.016632	-1.5758	0.16083	-0.020294	0.047607	0.46906	0.14786	-0.49728	0.009003	0.10376	0.12329	-2.1713	0.046082	-0.003815	-0.021973
20.385	-0.028992	-0.46921	0.26779	-0.019379	0.001984	-0.048218	0.09079	0.007782	0.054626	0.016174	-0.1416	-0.009003	-0.041351	0.19989	-0.55878	0.020294	0.002899	-0.24033	-1.3353	0.15839	-0.1001	0.03891	0.62241	0.18921	-0.57342	-0.043335	0.11765	0.30807	0.13336	-0.060883	0.000458	-0.042267
20.386	-0.027924	-0.3981	0.36209	-0.006409	0.010986	-0.038757	0.15778	0.00473	0.027466	0.0177	-0.15213	-0.007477	-0.052948	0.20371	-0.47455	0.00824	-0.006714	-0.54398	-0.97122	0.056915	0.020294	-0.10757	0.71289	0.054169	-0.57419	-0.077972	0.17532	0.20554	0.004883	0.62454	0	-0.040741
20.387	-0.012817	-0.29526	0.37018	-0.007935	0.00885	-0.050507	0.24689	0.008392	-0.008545	0.023193	-0.019379	-0.019684	-0.014496	0.2243	-0.031281	0.024719	-0.009308	-0.63187	-0.39871	-0.093384	0.21027	-0.36774	0.6633	-0.26337	-0.81711	-0.038452	0.027466	0.096283	0.14847	0.38711	-0.002441	-0.023346
20.388	-0.013885	-0.1944	0.26688	0.003967	0.010376	-0.052338	0.27054	0.007477	-0.035553	0.003357	-0.04364	-0.013275	0.017395	0.18875	-0.159	0.038605	-0.031128	-0.39887	0.2153	-0.034943	0.26596	-0.44357	0.73425	-0.3743	-0.90668	-0.041504	-0.21957	0.080872	-0.41672	0.10773	-0.002441	-0.023346
20.389	-0.008087	-0.13702	0.28488	-0.004578	0.000916	-0.037689	0.20874	0.000458	-0.042114	0.014343	-0.16693	-0.007019	-0.011292	0.10391	0.031128	0.028534	-0.019073	-0.26855	-0.23483	0.037842	0.093079	-0.063629	0.82199	-0.4538	-0.58151	-0.063324	0.022888	0.031586	-1.0928	-0.10086	-0.002289	-0.023651
20.39	-0.004883	-0.034637	0.3157	-0.015106	0.00885	-0.02594	0.15808	0.009918	-0.048065	0.019684	-0.38223	-0.007477	0.003967	0.065002	1.0944	0.023651	-0.030823	-0.19394	0.17136	0.003204	0.026855	0.31937	0.63034	-0.26108	-0.168	-0.063171	0.18555	0.001678	-1.2769	0.20096	-0.003357	-0.009613
20.391	-0.005798	0.040283	0.32074	0.004425	0.010071	-0.034332	0.15564	0.01709	-0.053711	0.043182	-0.11734	-0.00473	-0.073242	0.18951	0.31387	0.022278	0.01358	-0.20767	0.081177	-0.006866	0.06546	0.48065	0.46219	-0.17075	0.14221	-0.066833	0.036926	-0.023804	0.17624	0.60715	-0.001678	-0.012512
20.392	-0.013275	0.094147	0.30029	0.002441	-0.005341	0.002289	0.18478	-0.007935	-0.046082	0.027771	-0.044556	-0.003357	-0.10696	0.2153	-0.22858	0.020599	0.068207	-0.18372	-0.18753	-0.033875	-0.011444	-0.11688	0.42572	-0.012207	0.17624	-0.046539	-0.035858	-0.11704	0.56351	0.31097	-0.006714	-0.00824
20.393	-0.007477	0.15472	0.29327	0.000916	-0.001678	0.010071	0.21164	0.018158	-0.037079	0.007324	-0.11154	-0.021362	-0.063934	0.19394	-0.522	0.006866	0.075378	-0.075378	-0.25955	-0.059967	-0.13168	-0.38513	0.4306	0.48935	0.17349	0.034332	-0.21408	-0.049133	1.9586	0.063477	0	-0.019073
20.394	-0.004578	0.20721	0.27222	-0.000916	-0.005646	0.016174	0.24368	0.008087	-0.025024	0.002594	-0.11856	-0.024261	-0.030823	0.1265	-0.094604	-0.009766	0.020752	0.028839	-0.78934	-0.044861	-0.36453	-0.31906	0.28824	0.81284	0.18143	0.063019	-0.034485	-0.060577	0.42618	-0.11597	-0.001068	-0.019379
20.395	0.000763	0.22781	0.23789	-0.00061	-0.003204	-0.001373	0.26581	0.011292	-0.01297	0.002289	-0.13153	-0.031128	-0.057678	0.06424	0.21088	0.001221	0.018005	0.12497	-1.118	0.011292	-0.14923	-0.21439	0.31342	0.70068	0.13458	-0.028992	0.20615	-0.059814	-0.63171	-0.048065	-0.005341	-0.02182
20.396	0.003662	0.21011	0.24246	0.00412	0.005188	-0.005951	0.27496	0.006714	-0.007019	0.030518	0.019836	-0.027924	-0.11246	0.0354	0.29968	0.007935	-0.002441	0.15457	-1.0246	0.047455	0.15137	-0.20584	0.4277	0.48508	0.029602	-0.065155	0.13702	-0.052643	-1.4574	-0.023651	-0.00061	-0.017853
20.397	-0.001068	0.20523	0.21912	0.003357	0.01709	-0.018158	0.26367	-0.003815	-0.007324	0.021515	0.070038	-0.023956	0.000153	-0.021973	-0.26016	0.009308	-0.04425	0.097656	-0.4335	0.037384	0.11917	-0.28076	0.25421	0.13443	0.19623	-0.049286	-0.12421	-0.052185	-0.058289	-0.11292	-0.001526	-0.019531
20.398	-0.003052	0.1532	0.19836	-0.007629	0.012665	-0.015411	0.28153	0.005646	0.002136	-0.007324	-0.064392	-0.021667	0.056763	0.081787	-0.16296	0.008545	-0.039978	0.1741	-0.053253	-0.004883	0.073547	0.52826	0.18707	0.12665	0.25925	0.057678	-0.12833	-0.055695	1.5462	-0.1001	-0.001221	-0.02533
20.399	-0.011749	0.12497	0.18921	0.025177	0.00473	-0.018158	0.29526	0.003967	0.014343	0.020142	-0.11765	-0.024567	0.041809	0.11841	0.088501	0.015564	0.003357	0.2214	0.30655	-0.029144	-0.034485	0.70557	0.28931	0.090942	0.093689	0.069733	0.049133	-0.051422	1.5515	-0.077515	-0.001068	-0.019684
20.4	-0.014954	0.13733	0.14923	0.027161	0.00824	-0.010834	0.28061	0.007629	0.033264	0.027618	-0.019073	-0.024109	-0.003052	0.049591	-0.36346	0.02182	0.034027	0.26703	0.01709	-0.050049	-0.11231	0.49255	0.37003	0.080261	-0.041656	0.015869	0.16541	-0.049744	1.7931	-0.026398	-0.00061	-0.025024
20.401	-0.00885	0.19318	0.12695	0.009766	0.020294	-0.027924	0.25787	0.010223	0.015106	0.001831	-0.010681	-0.020447	0.003357	0.055695	0.3154	0.011444	0.0383	0.38055	-0.39841	-0.063477	-0.079803	0.62546	0.28763	0.11231	-0.11002	0.00946	-0.023499	-0.052643	1.7064	-0.12787	-0.000458	-0.020752
20.402	-0.011597	0.2214	0.13611	0.000153	0.007935	-0.020294	0.29205	0.007935	0.051727	-0.012054	-0.072174	-0.0177	0.000153	0.014954	-0.12299	0.011902	0.011597	0.34347	-0.99594	-0.002899	-0.023499	0.2713	0.15366	0.17227	-0.19043	0.004883	-0.10437	-0.056	-1.1475	-0.07782	-0.003052	-0.020905
20.403	-0.01236	0.20508	0.098267	-0.006104	0.004883	-0.031433	0.29633	-0.001831	0.096283	-0.00473	-0.091553	-0.022736	-0.063019	-0.000916	-0.033569	0.000153	-0.018005	0.30365	-1.2608	-0.045013	0.089111	-0.27084	0.1149	0.21088	-0.34698	0.001831	-0.1416	-0.036163	0.023956	0.25162	-0.003052	-0.021667
20.404	-0.019379	0.25269	0.068512	0.003967	0.014191	-0.027618	0.29938	0.00351	0.10895	0.027008	-0.091248	-0.018768	-0.081482	-0.039825	-0.3418	-0.001221	-0.030212	0.10681	-1.501	0.024109	0.11459	-0.233	0.3096	0.090179	-0.62485	0.022125	0.020905	0.046844	0.60028	0.2594	-0.001678	-0.023193
20.405	-0.019684	0.28641	0.016327	0.00885	0.005341	-0.026855	0.31586	0.006561	0.13672	0.041656	-0.03067	-0.019073	-0.085602	-0.052795	-0.32776	-0.006256	0.012054	-0.088196	-1.9492	0.1294	0.083618	-0.083618	0.4097	0.10376	-0.58273	0.018921	-0.007324	-0.006561	-0.61966	0.34821	0.004425	-0.019531
20.406	-0.013885	0.28931	-0.001678	-0.010071	0.006714	-0.032959	0.31021	0.010681	0.15213	0.018005	-0.074005	-0.018768	-0.024567	-0.015106	-0.18738	-0.00412	0.039673	-0.29083	-1.8205	0.20325	0.06546	-0.013123	0.36499	0.098267	-0.35065	-0.020142	-0.015411	-0.015564	-1.268	0.02121	-0.005493	-0.02243
20.407	-0.016785	0.34698	-0.024414	0.005493	0.007172	-0.033875	0.35141	0.00824	0.17364	0.029755	0.00946	-0.022736	-0.021973	0.010376	-0.005646	0.006409	0.02121	-0.37369	-0.44846	0.10361	0.088959	0.076904	0.19272	0.074158	-0.18433	-0.054932	0.057526	-0.02243	0.055237	-0.13779	-0.000763	-0.011902
20.408	-0.012665	0.44174	-0.015717	-0.010834	0.009766	-0.031433	0.4071	0.001526	0.15625	0.052185	0.031433	-0.016785	-0.068512	-0.040283	-0.12222	0.001373	0.013275	-0.52704	-0.013123	-0.066833	0.036621	0.34149	0.083313	0.052643	-0.077515	-0.04837	0.11246	-0.019073	0.36667	-0.1767	-0.004272	-0.020294
20.409	-0.015411	0.55115	-0.002441	-0.02594	0.008698	-0.043945	0.44373	0.00885	0.14969	0.06424	0.059967	-0.02243	-0.064697	-0.07309	-0.11215	-0.001526	-0.073547	-0.50964	-0.98862	-0.12863	0.23651	0.5426	0.036774	0.13443	0.078125	-0.026703	0.021973	-0.012054	-1.2741	-0.11231	0	-0.015106
20.41	-0.018463	0.71762	0.027161	-0.027313	0.010986	-0.046692	0.44296	0.007019	0.13245	0.061035	-0.006256	-0.012665	-0.050049	0.008545	-0.013428	-0.001373	-0.09964	-0.46753	-1.1533	-0.017242	0.062408	0.37766	0.011749	0.096893	0.19745	-0.050964	0.094452	-0.019379	0.039215	0.013275	-0.002899	-0.00351
20.411	-0.011444	0.91156	0.028687	-0.033264	0.011597	-0.032654	0.45136	0.005951	0.10437	0.035095	0.072937	-0.014801	-0.048828	0.14435	0.073547	-0.009308	-0.09613	-0.46173	-0.71152	0.007782	-0.24872	0.032654	-0.024719	0.010223	0.14023	-0.024261	0.044098	-0.019836	-1.2416	0.02121	-0.003815	-0.00473
20.412	-0.010071	1.0568	0.041351	-0.013733	0.009766	-0.049896	0.38925	0.005188	0.091858	0.052948	0.13367	-0.020294	-0.061951	0.072632	0.26184	-0.006561	-0.064392	-0.48263	-0.93597	-0.011749	-0.079346	-0.13748	-0.02655	-0.26321	0.014954	0.034943	-0.029297	-0.02121	-2.2475	-0.084991	-0.001526	-0.000305
20.413	-0.006561	1.1546	-0.001373	0.008392	0.00412	-0.063629	0.38635	0.009003	0.0737	0.058899	-0.002441	-0.015869	-0.037079	-0.019684	0.22598	0.002747	-0.000153	-0.49805	-0.98953	-0.005341	0.13733	-0.35904	0.14633	-0.2214	-0.057983	0.045624	-0.040588	-0.039215	-0.57648	-0.17593	0	0.004578
20.414	-0.008698	1.2563	0.02243	-0.001831	0.012817	-0.042725	0.44098	0.001221	0.028229	0.058289	-0.1207	-0.015411	-0.011749	0.037231	0.22949	-0.008545	0.011902	-0.51697	-0.82489	-0.001984	0.20462	-0.55328	0.08316	-0.075684	-0.043945	-0.064087	-0.10803	-0.057983	0.89493	-0.30716	-0.005798	-0.001831
20.415	0.005035	1.3847	0.046082	0.00473	0.01358	-0.040436	0.37201	-0.000305	0.010223	0.03418	0.006866	-0.014954	0.010681	0.068512	0.41702	-0.001068	-0.017853	-0.5751	-0.84763	0.075684	0.13687	-0.53497	-0.094452	0.013885	0.064697	-0.16373	-0.071411	0.048676	0.92606	-0.242	-0.006104	-0.001678
20.416	0.004272	1.4546	0.064087	0.007172	0.014038	-0.011139	0.44784	0	0.00885	0.023193	0.07309	-0.016937	0.006104	0.1265	0.5098	-0.007477	-0.005646	-0.53635	-0.94803	0.098572	0.031891	-0.50034	-0.20416	-0.032654	0.45197	0.008392	-0.059509	0.042572	1.241	-0.070801	-0.003662	-0.007935
20.417	0.007019	1.4877	0.080872	0.010529	0.024109	0.001221	0.49606	-0.002899	-0.011597	0.059662	0.10559	-0.016632	-0.050659	0.13687	0.15289	-0.01236	0.018005	-0.63843	-0.93338	0.14069	-0.049133	-0.38589	0.088654	-0.079498	0.48325	0.16571	0.14816	0.002594	0.71991	-0.094604	-0.009155	-0.014343
20.418	0.010376	1.5096	0.098267	-0.008087	0.007324	0.00412	0.5632	-0.000916	-0.030212	0.059814	-0.081787	-0.010376	-0.083923	0.095978	-0.21881	-0.005188	0.018463	-0.76538	-0.97412	0.13412	-0.047607	-0.32074	0.15503	-0.17502	0.38193	0.14832	0.41794	0.012207	-0.79407	-0.16296	-0.006866	-0.012512
20.419	0.00473	1.5265	0.10498	-0.027924	0.003052	-0.015106	0.55954	-0.005188	-0.049133	0.015106	-0.047302	-0.017853	-0.054474	0.10056	-0.12161	0.000763	0.007477	-0.77103	-0.65384	0.096588	-0.022583	-0.14862	-0.027008	-0.24155	0.30212	0.069733	0.40497	-0.019379	-0.2359	-0.029297	-0.007782	-0.009918
